<svg width="118" height="26" viewBox="0 0 118 26" fill="none" xmlns="http://www.w3.org/2000/svg">
<path d="M6.71994 2.66409L1.94394 20.4961H-6.25104e-05L5.25594 0.960093H18.6479L16.9439 2.66409H6.71994ZM6.55194 12.6481L4.43994 20.4961H2.51994L5.08794 10.9441H13.6799L13.2239 12.6481H6.55194ZM8.61594 4.94409L7.63194 8.66409H14.3039L13.8239 10.3681H5.25594L7.17594 3.24009H16.3679L14.6639 4.94409H8.61594ZM15.1389 20.4961L19.2669 5.13609H21.1869L17.0589 20.4961H15.1389ZM19.6029 3.84009L20.6349 9.29832e-05H22.5789L21.5229 3.84009H19.6029ZM17.6349 20.4961L21.7629 5.13609H23.6829L19.5549 20.4961H17.6349ZM22.0989 3.84009L23.1549 9.29832e-05H25.0509L24.0189 3.84009H22.0989ZM26.0413 7.94409C26.2813 7.06409 26.7133 6.37609 27.3373 5.88009C27.9773 5.38409 28.7373 5.13609 29.6172 5.13609H39.4333L35.3053 20.4961H33.4333L37.1053 6.79209H29.6653C29.2333 6.79209 28.8493 6.92809 28.5133 7.20009C28.1773 7.47209 27.9453 7.82409 27.8173 8.25609L24.5293 20.4961H22.6572L26.0413 7.94409ZM28.3453 8.44809C28.4413 8.09609 28.6093 7.83209 28.8493 7.65609C29.1053 7.46409 29.4093 7.36809 29.7613 7.36809H36.3853L32.8573 20.4961H30.9853L34.0573 9.02409H30.0493L26.9773 20.4961H25.1053L28.3453 8.44809ZM45.4923 8.95209L44.8203 11.4721H48.9963L49.6683 8.95209H45.4923ZM41.4603 7.94409C41.6843 7.08009 42.1163 6.40009 42.7563 5.90409C43.3963 5.39209 44.1563 5.13609 45.0363 5.13609H50.9163C51.9723 5.13609 52.7643 5.36809 53.2923 5.83209C53.8203 6.28009 54.0843 6.92809 54.0843 7.77609C54.0843 8.20809 54.0123 8.70409 53.8683 9.26409L52.9803 12.5761C52.7883 13.3121 52.4203 13.8881 51.8763 14.3041C51.3483 14.7201 50.6923 14.9281 49.9083 14.9281H43.9083L43.4283 16.6801H51.9963L50.5083 18.2881H42.4443C42.1083 18.2881 41.8523 18.2161 41.6763 18.0721C41.5003 17.9281 41.4123 17.7201 41.4123 17.4481C41.4123 17.2881 41.4363 17.1281 41.4843 16.9681L42.4203 13.4881H49.5483C50.4763 13.4881 51.0603 13.0481 51.3003 12.1681L52.2363 8.66409C52.2843 8.47209 52.3083 8.28809 52.3083 8.11209C52.3083 7.69609 52.1723 7.36809 51.9003 7.12809C51.6283 6.88809 51.2523 6.76809 50.7723 6.76809H45.1083C44.6763 6.76809 44.2843 6.90409 43.9323 7.17609C43.5803 7.44809 43.3483 7.80009 43.2363 8.23209L40.8843 16.9681C40.8363 17.1601 40.8123 17.3521 40.8123 17.5441C40.8123 17.9441 40.9403 18.2641 41.1963 18.5041C41.4683 18.7441 41.8363 18.8641 42.3003 18.8641H49.9803L48.4683 20.4961H41.9403C40.9643 20.4961 40.2203 20.2721 39.7083 19.8241C39.1963 19.3601 38.9403 18.7201 38.9403 17.9041C38.9403 17.5041 38.9963 17.0881 39.1083 16.6561L41.4603 7.94409ZM43.7643 8.42409C43.8603 8.07209 44.0283 7.80809 44.2683 7.63209C44.5243 7.44009 44.8283 7.34409 45.1803 7.34409H50.6043C51.3243 7.34409 51.6843 7.63209 51.6843 8.20809C51.6843 8.33609 51.6603 8.48809 51.6123 8.66409L50.6763 12.0961C50.6123 12.3681 50.4763 12.5761 50.2683 12.7201C50.0763 12.8481 49.8363 12.9121 49.5483 12.9121H42.5643L43.7643 8.42409ZM68.4519 4.94409L66.8439 10.9681H71.4519L73.0599 4.94409H68.4519ZM61.7799 20.4961H59.8359L63.3399 7.48809L65.8839 5.25609L61.7799 20.4961ZM62.6199 4.94409L64.2999 3.24009H73.8759C74.6919 3.24009 75.0999 3.57609 75.0999 4.24809C75.0999 4.40809 75.0759 4.58409 75.0279 4.77609L73.2279 11.4961C73.1159 11.8801 72.9239 12.1761 72.6519 12.3841C72.3799 12.5761 72.0439 12.6721 71.6439 12.6721H64.4679L66.5319 4.94409H62.6199ZM75.6039 12.0721C75.3479 13.0161 74.8999 13.7361 74.2599 14.2321C73.6199 14.7121 72.8279 14.9521 71.8839 14.9521H65.7639L64.2759 20.4961H62.3799L64.3239 13.2481H71.6919C72.1879 13.2481 72.6199 13.1041 72.9879 12.8161C73.3719 12.5281 73.6279 12.1361 73.7559 11.6401L75.6039 4.77609C75.6679 4.56809 75.6999 4.35209 75.6999 4.12809C75.6999 3.66409 75.5559 3.30409 75.2679 3.04809C74.9799 2.79209 74.5719 2.66409 74.0439 2.66409H64.8759L66.5559 0.960093H74.3079C75.3479 0.960093 76.1559 1.22409 76.7319 1.75209C77.3239 2.28009 77.6199 3.00009 77.6199 3.91209C77.6199 4.29609 77.5559 4.72809 77.4279 5.20809L75.6039 12.0721ZM79.9147 20.4961C78.9387 20.4961 78.1947 20.2721 77.6827 19.8241C77.1707 19.3601 76.9147 18.7201 76.9147 17.9041C76.9147 17.5041 76.9707 17.0881 77.0827 16.6561L81.5467 9.29832e-05H83.4427L78.9067 16.9441C78.8427 17.2321 78.8107 17.4241 78.8107 17.5201C78.8107 17.9201 78.9387 18.2401 79.1947 18.4801C79.4667 18.7201 79.8347 18.8401 80.2987 18.8401H83.0827L82.6267 20.4961H79.9147ZM83.2267 18.2641H80.4427C80.1067 18.2641 79.8507 18.1921 79.6747 18.0481C79.4987 17.8881 79.4107 17.6721 79.4107 17.4001C79.4107 17.2561 79.4347 17.1041 79.4827 16.9441L84.0187 9.29832e-05H85.9147L81.4747 16.6081H83.6827L83.2267 18.2641ZM95.7213 9.02409H91.5933L89.5773 16.6081H93.7053L95.7213 9.02409ZM88.5933 18.2641C88.2573 18.2641 88.0013 18.1921 87.8253 18.0481C87.6493 17.8881 87.5613 17.6721 87.5613 17.4001C87.5613 17.2561 87.5853 17.1041 87.6333 16.9441L89.9133 8.44809C90.0093 8.09609 90.1773 7.83209 90.4173 7.65609C90.6733 7.46409 90.9773 7.36809 91.3293 7.36809H98.0253L94.4973 20.4961H92.6493L93.4413 17.5921L92.7453 18.2641H88.5933ZM88.0653 20.4961C87.0893 20.4961 86.3453 20.2721 85.8333 19.8241C85.3213 19.3601 85.0653 18.7201 85.0653 17.9041C85.0653 17.5041 85.1213 17.0881 85.2333 16.6561L87.5853 7.94409C87.8253 7.06409 88.2573 6.37609 88.8813 5.88009C89.5213 5.38409 90.2813 5.13609 91.1613 5.13609H101.097L96.9693 20.4961H95.0973L98.7693 6.79209H91.1853C90.7533 6.79209 90.3693 6.92809 90.0333 7.20009C89.6973 7.47209 89.4653 7.82409 89.3373 8.25609L87.0093 16.9441C86.9453 17.2321 86.9133 17.4241 86.9133 17.5201C86.9133 17.9201 87.0413 18.2401 87.2973 18.4801C87.5693 18.7201 87.9373 18.8401 88.4013 18.8401H92.1933L90.5133 20.4961H88.0653ZM105.884 16.9201C105.58 16.9201 105.364 16.8481 105.236 16.7041C105.124 16.5601 105.076 16.3361 105.092 16.0321L105.404 5.13609H107.324L106.868 15.2641H108.164L113.18 5.13609H115.22L109.316 16.9201H105.884ZM106.244 19.1521H105.116C103.484 19.1521 102.676 18.2561 102.692 16.4641L102.836 5.13609H104.828L104.468 16.0801C104.452 16.5281 104.548 16.8801 104.756 17.1361C104.98 17.3761 105.3 17.4961 105.716 17.4961H109.028L105.212 25.1521H103.148L106.244 19.1521ZM105.836 25.1521L115.844 5.13609H117.812L107.78 25.1521H105.836Z" fill="#FF7400"/>
</svg>
