<svg width="699" height="737" viewBox="0 0 699 737" fill="none" xmlns="http://www.w3.org/2000/svg">
<path d="M342.99 388.169L301.719 511.25L182.546 472.542V677.921C182.546 680.119 181.08 682.195 178.882 682.806L6.5936 736.043C3.2968 737.02 0 734.578 0 731.159V24.2987L15.5072 0H196.221L182.668 24.2987H438.964C447.755 24.2987 456.425 24.7871 464.85 25.6418L416.619 169.358L405.141 149.822C400.135 141.396 390.244 137.001 380.598 139.199L252.389 167.527C242.743 169.602 235.661 177.661 234.684 187.552L221.985 318.203C221.008 327.971 226.503 337.251 235.539 341.281L343.234 388.169H342.99Z" fill="#FF7400"/>
<path d="M504.411 41.8792L448.609 208.063L488.415 275.708C493.421 284.133 492.323 294.879 485.851 302.327L392.808 407.336C389.755 410.755 384.993 411.732 380.842 410.023L342.623 523.946H455.691C589.762 523.946 698.434 415.273 698.434 281.203V279.86C698.434 162.518 615.159 64.5905 504.411 42.0012V41.8792Z" fill="#FF7400"/>
</svg>
